<svg xmlns="http://www.w3.org/2000/svg" viewBox="0 0 22.474 30.56"><defs><style>.a{fill:#fff;stroke:rgba(0,0,0,0);}</style></defs><g transform="translate(-114.2 -31.367)"><path class="a" d="M18.569,28.94c-.922-1.087-4.956-7.3-5.65-8.548-.564-1.012-2.259-3.374-2.41-3.636q-.024-.046-.044-.094c-.1,3.66-.231,7.831-.28,8.028a4.025,4.025,0,0,0-.043.917,3.657,3.657,0,0,1-.063,1.008A1.557,1.557,0,0,1,8.915,28.1a12.5,12.5,0,0,1-2.27.6c-.247.05-.5.1-.752.156a.938.938,0,0,1-.2.023c-.412,0-.579-.339-.714-.687a3.154,3.154,0,0,1,.623-3A26.53,26.53,0,0,0,7.483,21.95a1.932,1.932,0,0,0,0-1.566A10.64,10.64,0,0,0,5.3,17.147a1.616,1.616,0,0,1-.031-2.573c.156-.186.318-.373.475-.553a11.219,11.219,0,0,0,1.281-1.669,1.236,1.236,0,0,0,.207-.4,1.743,1.743,0,0,1,.123-.279V11.67c.3-1.261.265-1.707.185-1.86A7.21,7.21,0,0,0,5.787,6.74,7.048,7.048,0,0,1,4.559,4.871a1.622,1.622,0,0,1,.189-1.749c.345-.437.666-.9.976-1.356.14-.2.283-.411.427-.615A.533.533,0,0,1,6.659.905c.053,0,.108,0,.161.005l.117,0c.044.012.568.022,1.143.022C8.75.937,9.333.924,9.68.9l.066,0a.39.39,0,0,1,.307.1,1.169,1.169,0,0,1,.536,1.006c.047.1.059,2.6.056,4.707,0,1.805-.018,3.682-.038,4.372.074-.1.154-.194.227-.294.119-.167,2.387-3.389,3.366-4.87A53.567,53.567,0,0,1,17.658.735,2,2,0,0,1,19.7.049a1.449,1.449,0,0,1,1.18,2.194,33.025,33.025,0,0,1-4.419,6.668c-1.214,1.419-2.455,2.814-3.705,4.2a.716.716,0,0,0-.091,1.073C14.585,16.748,20.767,25.2,21.394,26.6c.421.938-.823,2.942-1.866,2.96h-.015A1.321,1.321,0,0,1,18.569,28.94ZM6.45,25.562a.477.477,0,0,0,.016.532.776.776,0,0,0,.791.584,1.809,1.809,0,0,0,.437-.061.818.818,0,0,0,.61-.952.876.876,0,0,0-.819-.82,1.317,1.317,0,0,0-.166-.01A.831.831,0,0,0,6.45,25.562Zm.031-10.029a1.034,1.034,0,0,0,.229.78,1.06,1.06,0,0,0,.762.315c.026,0,.052,0,.077,0A.926.926,0,0,0,8.559,15.6c.056-.589-.283-.957-.977-1.064a.824.824,0,0,0-.124-.009A1.048,1.048,0,0,0,6.481,15.533Zm.18-11.776a.927.927,0,0,0-.219.7.788.788,0,0,0,.845.846h.025a.829.829,0,0,0,.907-.9.823.823,0,0,0-.869-.9H7.337A.924.924,0,0,0,6.661,3.758ZM3.148,29.214c-.069-.021-.14-.042-.21-.057A3.316,3.316,0,0,1,.86,26.608a5.2,5.2,0,0,1-.35-1.4c-.026-.168-.052-.341-.084-.51Q.316,23.049.205,21.4a67.65,67.65,0,0,1-.113-8.942q.016-.479.031-.958c.008-.285,0-.575,0-.857A8.519,8.519,0,0,1,.208,8.906,24.8,24.8,0,0,1,.941,2.89,1.551,1.551,0,0,1,2,1.77c.561-.165,1.128-.288,1.728-.418.247-.054.5-.109.761-.168a1.765,1.765,0,0,1-.5.925,3.085,3.085,0,0,0-.259.33,2.812,2.812,0,0,0-.008,3.511c.251.391.537.765.815,1.127A12.7,12.7,0,0,1,5.6,8.618a2.961,2.961,0,0,1-.3,3.865c-.229.283-.475.558-.714.824-.13.145-.264.3-.393.445a2.778,2.778,0,0,0-.012,4.171c.1.11.19.224.28.335A7.232,7.232,0,0,0,5,18.868c1.42,1.389,1.49,2.695.239,4.508-.053.077-.106.155-.16.231a13.261,13.261,0,0,0-1.3,2.168,3.279,3.279,0,0,0,.148,3.3.5.5,0,0,1-.407.21A1.319,1.319,0,0,1,3.148,29.214Zm-.866-8.028a.916.916,0,0,0,.946.974c.628-.07.954-.405.942-.968a.874.874,0,0,0-.9-.925H3.236A.885.885,0,0,0,2.282,21.186ZM2.254,10.079a.956.956,0,0,0,.977,1.045h.031A1.012,1.012,0,1,0,3.281,9.1H3.229A.93.93,0,0,0,2.254,10.079Z" transform="translate(114.681 31.869)"/></g></svg>